<svg xmlns="http://www.w3.org/2000/svg" viewBox="0 0 44 800" width="100" height="900"><defs><style>.cls-1{fill:#444;opacity:0.93;}</style></defs><g data-name="レイヤー 2"><g data-name="レイヤー 1"><path class="cls-1" d="M28.26,12.67a67.36,67.36,0,0,0,3.09-7.83c3.88,1.31,4.31,1.73,4.31,2.31s-.47.94-2.25,1.1a32.93,32.93,0,0,1-3.51,4.42h8.75c.75-1.63,1-1.79,1.4-1.79s.85.21,2.11,1.42c1.45,1.42,1.5,1.84,1.5,2.26s-.43,1-2.16,1.21A27.11,27.11,0,0,1,38,19l-.8-.58a28.6,28.6,0,0,0,1.45-4H6a4.65,4.65,0,0,1,0,.74c0,3.1-1.59,5.52-3.79,5.52A1.43,1.43,0,0,1,.75,19.13c0-1.05.51-1.62,1.5-2.52a5.16,5.16,0,0,0,2-4.1c0-.47,0-1.16-.1-1.68l.89-.26a12.65,12.65,0,0,1,.75,2.1h7.54a1.56,1.56,0,0,1-1-1.21A7.72,7.72,0,0,0,9.45,7l.28-.78c-1.54,0-3.13,0-4.68,0l0-1C14.88,4.57,26.2,2.57,33.6,0c3,1.79,3.32,2.31,3.32,2.79s-.38.73-1.31.73c-.38,0-.84,0-1.36-.1a102.74,102.74,0,0,1-14.6,2.2C23.26,7,24.33,9.2,24.33,10.78a1.89,1.89,0,0,1-1.22,1.89Zm-27,34.54a47.64,47.64,0,0,0,19.46-8.15,29.18,29.18,0,0,1-4.3-6A41,41,0,0,1,2.15,43.27l-.42-1a44.56,44.56,0,0,0,15.86-16c3.56.84,3.93,1.1,3.93,1.68s-.42.89-1.82,1.05c-.33.42-.66.89-1,1.31h9.54c.75-1.21,1-1.31,1.36-1.31s.84.21,2,1.31,1.22,1.42,1.22,1.84-.56.95-1.92,1.26a36.85,36.85,0,0,1-5.9,6c4.78,2.84,10.72,4.26,18,4.52l0,1a4.33,4.33,0,0,0-3,2.84c-6.93-1-12.63-3.05-17.13-6.78A45,45,0,0,1,1.4,48.26Zm9-29.81a11.13,11.13,0,0,1,.47,3.52c0,3.74-2.2,5.84-4.17,5.84a1.57,1.57,0,0,1-1.68-1.63A2.4,2.4,0,0,1,6.32,23c2.1-1.16,3-2.79,3-5.52Zm12.12-4.73a1.55,1.55,0,0,1-1-1.47,7.46,7.46,0,0,0-2.25-4.79l.52-.79c-3.19.32-6.37.53-9.5.58,4,1,5.05,3.05,5.05,4.74,0,.94-.37,1.57-1,1.73Zm8,6.68a24.92,24.92,0,0,0-.38,3.2c0,.69,1.27.63,1.27,1.63,0,.79-.85,1.58-9.31,1.58-7.4,0-8-.58-8-2.26,0-.63.1-2.1.1-3.31,0-1.37,0-2.53-.1-4.21,3.75.58,4.22.89,4.22,1.42,0,.32-.29.63-1.41,1.05v3.84c0,.74.47.95,5.1.95,5.15,0,5.71-.21,6.55-1.58a10,10,0,0,0,1-2.58ZM17.22,32.17a28,28,0,0,0,5.29,5.52,31.59,31.59,0,0,0,5.24-5.62H17.31Zm3.13-17c3,.95,4.92,2.79,4.92,4.84a1.66,1.66,0,0,1-1.5,1.84c-.66,0-1.08-.37-1.26-1.26A7.37,7.37,0,0,0,20,16ZM31.86,17.3c4.82,1.31,7.49,4.2,7.49,6.51,0,1.32-.65,2.11-1.45,2.11a2,2,0,0,1-1.82-1.58,11.47,11.47,0,0,0-4.64-6.1Z"/><path class="cls-1" d="M39.49,94.8C34.44,101.59,27,106,20.12,106c-2.81,0-5.05-.58-6.46-2s-1.82-3.21-1.82-6.52c0-1.63.19-5.15.33-10.51.14-5.52.37-10.1.37-15,0-2.47-.7-3.36-2.2-3.73A4,4,0,0,0,8.8,68l-.24-.78a3.75,3.75,0,0,1,2.58-1.16,6.32,6.32,0,0,1,3.69,1.73c1.36,1.11,1.78,1.69,1.78,2.21a1.93,1.93,0,0,1-.56,1.26,3.29,3.29,0,0,0-.52,2c-.18,2.63-.42,5.26-.6,10.14-.19,5-.24,9.26-.24,12.25,0,3.26.19,4.84,1.08,5.89s2.2,1.32,4.86,1.32c4.92,0,12.26-3,18-9.15Z"/><path class="cls-1" d="M13.66,126.63a8.31,8.31,0,0,1,2.58-.69h.14a8.66,8.66,0,0,1,4.07,1.58,2.74,2.74,0,0,1,1.5,2.26,1.7,1.7,0,0,1-.61,1.21,6.52,6.52,0,0,0-1.27,1.68c-.42,1-.74,1.79-1.31,3.31a8.49,8.49,0,0,0,3-1.73,1.55,1.55,0,0,1,1.17-.42h.19c1.22,0,2.15.52,2.15,1.26v.21c0,.79-.56,1.31-2.24,2-1.4.52-2.95,1.1-5.48,1.94-3.6,9.47-7,18.14-9.82,25.5-.52,1.31-1.13,1.89-2.11,1.89-.61,0-1.21-.78-1.21-1.52a8.25,8.25,0,0,1,1-3.05c3-6.62,6.13-14.09,9.26-22a25.92,25.92,0,0,1-5.29.58c-2,0-3.88-1.1-5.19-3.63l.75-.73A5.36,5.36,0,0,0,9.17,138a24.91,24.91,0,0,0,6.51-1,46.08,46.08,0,0,0,1.63-4.53,7.71,7.71,0,0,0,.47-2.47c0-1.52-1.54-2.47-3.65-2.47H13.8Zm4,21.71c3.7-3.73,9-5.36,14.18-5.36a14.47,14.47,0,0,1,5.89,1,1.76,1.76,0,0,1,1.08,1.78c0,.84-.52,1.21-1.69,1.21-.7,0-2.15-.21-2.85-.21a7.67,7.67,0,0,0-3.56.84c-5.7,3-8.6,7.42-8.6,11,0,4.68,3.27,6.47,10,6.47a13.92,13.92,0,0,0,3.51-.27,6.55,6.55,0,0,1,1.54-.31c2.34,0,3,.84,3,2a1.41,1.41,0,0,1-.89,1.42,18.67,18.67,0,0,1-5.76.63c-9.49,0-13.28-3.37-13.28-9.2,0-4.37,2.57-8.31,9.78-13.88-4.4,0-7.63,1.15-11.65,3.89Z"/><path class="cls-1" d="M35.75,195c.93-1.26,1.87-2.47,3-3.73,4.54,4,4.64,4.31,4.64,4.83s-.29.63-.75.63H5.43L.66,197v-2.26l4.77.26Zm-5-7.36c.79-1.16,1.64-2.26,2.53-3.42,4,3.37,4.44,4,4.44,4.52,0,.37-.28.63-.75.63H10.39l-4.77.27v-2.26l4.77.26Zm.65,14.72c.71-1,1.55-2.1,2.39-3.1,4,3.36,4.16,3.68,4.16,4.2,0,.37-.28.63-.74.63H11.37l-4.77.27v-2.26l4.77.26Zm-.6,7.73c.7-1,1.54-2.1,2.38-3.1,4,3.26,4.17,3.67,4.17,4.2,0,.37-.29.63-.75.63H11.37l-4.77.27v-2.27l4.77.27ZM10.9,229v1.52a2.1,2.1,0,0,1-2.1,2c-.8,0-1.12-.31-1.12-.89,0-1.68.23-3.57.23-11,0-1.68,0-3.57-.14-5.15a15.82,15.82,0,0,1,4,1.79H33.08c.56-1.42.94-2.05,1.55-2.05s1.17.58,2,1.37c1.36,1.36,1.5,1.68,1.5,2.21s-.42.94-1.73,1.57v1.26c0,3.05.23,5.68.23,8.21,0,1-1.31,1.73-2.29,1.73-.61,0-.94-.32-.94-1V229Zm22.46-1.73v-8.2H11.46l-.56.62v7.58Z"/><path class="cls-1" d="M12.63,274.65V275c0,.79-1.17,1.36-2.24,1.36a.65.65,0,0,1-.75-.73c0-1.16.14-4.26.14-12V263H5.29l-4.21.26V261l4.21.27H9.78c0-2.42,0-3.53-.14-5.21,4,.42,4.68.79,4.68,1.32s-.33.84-1.69,1.42v2.47h7.3c0-2.84,0-3.95-.14-5.47,3.93.42,4.54.79,4.54,1.31s-.28.85-1.64,1.42v2.74h7.54c0-2.69-.05-3.79-.14-5.31,4.12.42,4.54.79,4.54,1.31s-.29.84-1.64,1.42v2.58h3.69c.8-1,1.69-2.05,2.58-3.05,3.69,3.31,3.83,3.68,3.83,4.15s-.28.63-.74.63H33c0,3,.18,4.89.18,5.89,0,.63-1.12,1.26-2.19,1.26-.52,0-.75-.16-.75-.63v-.89H22.69V270c0,.63-1.07,1.26-2.15,1.26-.51,0-.75-.15-.75-.63,0-1.52.14-3.47.14-7.57h-7.3v9.88H33.36c.75-1.05,1.55-2.1,2.53-3.26,3.79,3.37,4.16,4,4.16,4.37s-.28.63-.75.63h-15a1.35,1.35,0,0,1-.84,1.31v3.11h12.5c.84-1.06,1.68-2.05,2.8-3.32,3.7,3.05,4.45,3.89,4.45,4.42,0,.37-.28.63-.75.63h-18c4.25,3.89,11.41,7.1,19.74,8.46l-.23,1a4.3,4.3,0,0,0-3.61,2.53,34.82,34.82,0,0,1-16.89-11.2c0,7.52.19,9.62.19,11,0,.84-1.22,1.47-2.25,1.47a.77.77,0,0,1-.88-.84c0-1.32.09-3.31.13-10.52a46.87,46.87,0,0,1-20,11.41l-.43-.94a50.37,50.37,0,0,0,18-12.36H5.76L1,281.06V278.8l4.78.27H20.63v-4.42Zm13.81-24.29c0-1.73-.05-2.36-.14-4.47,4,.42,4.39.79,4.39,1.32s-.28.73-1.4,1.31v1.84h6.55c.94-1.26,1.73-2.26,2.67-3.31,4,3.42,4.35,3.89,4.35,4.42,0,.36-.28.63-.75.63H29.29c.05,1.73.1,2.78.1,3.31,0,.94-1.17,1.42-2.3,1.42a.7.7,0,0,1-.75-.79c0-.63.05-2.1.1-3.94H17.5c.05,2.15.09,3.31.09,3.83,0,.95-1.17,1.42-2.29,1.42a.7.7,0,0,1-.75-.79c0-.68,0-2.26.1-4.46H6.13l-4.77.26V250.1l4.77.26h8.52c0-1.73-.05-2.36-.14-4.47,4,.42,4.39.79,4.39,1.32s-.28.73-1.4,1.31v1.84Zm3.79,16.56V263H22.69v3.89Z"/><path class="cls-1" d="M31.73,323.51a11.21,11.21,0,0,1,2-.16,4.62,4.62,0,0,1,1.77.47A9.63,9.63,0,0,1,38,325.56a2.31,2.31,0,0,1,.84,1.62c0,.58-.42.9-1.12,1.11a13.54,13.54,0,0,0-2.76,1.16c-3.93,2.26-6.46,3.68-11,6.51.05,3.47.09,6,.09,7.84V345a1.73,1.73,0,0,1-1.73,1.73c-1.07,0-1.07-1-1.07-1.95,0-2.41.09-4.83.09-7.36-5,3.42-6.69,5.21-6.69,8.36,0,2.47,2.06,4.05,6.08,4.05,2.2,0,4.49-.05,6.32-.21a8.7,8.7,0,0,0,3-.73,3.4,3.4,0,0,1,1.73-.32c1.87,0,3,1,3,2s-.19,1.47-1,1.63a62.06,62.06,0,0,1-10.3.68,23.52,23.52,0,0,1-5.75-.53,6.42,6.42,0,0,1-5.29-6.46c0-3.21,2.53-6.63,8.89-10.89a39.12,39.12,0,0,0-.19-4.31A2.12,2.12,0,0,0,19,328.55c-2,0-3.65.74-5.9,3.26a53.83,53.83,0,0,0-3.46,4.58,2,2,0,0,1-1.73,1,1.38,1.38,0,0,1-1.31-1.52c0-.63.33-1.42,1.5-2.73a39.3,39.3,0,0,0,3.51-4.52,43.67,43.67,0,0,0,4-7.42,34.28,34.28,0,0,1-5.38.53,5.5,5.5,0,0,1-5.47-3.52l.79-.79c1.22,1.31,2.39,2,5,2a27.44,27.44,0,0,0,6.22-.89,20.15,20.15,0,0,0,1.17-3.31,10.28,10.28,0,0,0,.38-2.26,1.55,1.55,0,0,0-.89-1.42,3.84,3.84,0,0,0-2.25-.53l0-.84a3.89,3.89,0,0,1,2.2-.73,6.24,6.24,0,0,1,3.46,1.47c.75.58,1.4,1.15,1.4,1.73a1.37,1.37,0,0,1-.51,1.11,5.32,5.32,0,0,0-.84,1.21c-.33.68-.8,1.73-1.27,2.78,3.51-1.05,5-1.94,5.34-2.26a2.91,2.91,0,0,1,1.73-.52c1,.05,1.54.63,1.54,1.31a1.62,1.62,0,0,1-.84,1.58,16,16,0,0,1-2.9,1.16c-1.92.62-3.28,1-6.22,1.73-1.13,2.52-2.3,4.73-4,7.89a9.38,9.38,0,0,1,5.43-1.95c2.24,0,3.79,2,4,4.31.09.84.14,1.32.19,2.42,4.07-2.68,6.74-4.42,8.56-5.73,1.17-.84,1.59-1.37,1.59-1.84a.84.84,0,0,0-.42-.79,3.88,3.88,0,0,0-1.92-.58Z"/><path class="cls-1" d="M35.38,407.59c1-1.32,2-2.79,3.22-4.11,4.78,4.11,5.15,4.68,5.15,5.21,0,.37-.28.63-.75.63H5.24l-5,.26v-2.26l5,.27Zm-3-29.13a42.18,42.18,0,0,1,3-3.89c4.4,3.89,4.82,4.42,4.82,5,0,.37-.28.64-.75.64H9.4l-4.81.26V378.2l4.81.26Z"/><path class="cls-1" d="M20.5,448.56v-8.94c0-5.63-.05-7.52-.15-9.57,4.78.52,5.48.89,5.48,1.52,0,.43-.38.9-2.06,1.63v15.36H35.61c.93-1.27,2-2.74,3.09-4,4.68,4.15,4.91,4.63,4.91,5.1s-.28.63-.75.63H23.77c.09,19.92.28,24.13.28,26,0,.79-1.59,1.69-2.9,1.69-.61,0-.89-.21-.89-.79,0-1.9.19-6.1.24-26.92h-15l-4.68.26v-2.26l4.68.27Z"/><path class="cls-1" d="M15.53,515.6H11.75l-4.68.26V513.6l4.68.27h4.11l2.86-14.72H8.19l-4.68.26v-2.26l4.68.26H33.27c.84-1.21,2-2.68,2.81-3.68,4.35,3.84,4.63,4.42,4.63,4.79s-.28.63-.75.63H22.55c-.09.58-.42.78-.84,1.05L19,513.87h9.68c.47-1.16,1-2,1.55-2a3.18,3.18,0,0,1,2,1.21c1,1,1.45,1.36,1.45,2.1,0,.47-.47.9-1.64,1.47l.61,16.83h3.79c.94-1.32,2.06-2.69,3-3.79,4.64,4.26,4.73,4.52,4.73,4.89s-.28.63-.75.63H4.68L0,535.47v-2.26l4.68.27h7.39Zm14,17.88L29,515.6H18.67l-3.51,17.88Z"/><path class="cls-1" d="M8.42,576.71c0-2.68,0-4.31-.14-6.73a19.45,19.45,0,0,1,3.89,1.68h9.59v-9.83H11.23a44.67,44.67,0,0,1-10.11,12L.47,573A55.09,55.09,0,0,0,11.6,552.1c3.84,1.68,4.59,2.21,4.59,2.84s-.56.95-2.06,1a42.39,42.39,0,0,1-1.92,4.1H35.42c.89-1.21,1.92-2.47,2.81-3.57,3.93,3.42,4.49,4.21,4.49,4.68s-.28.63-.75.63H25.64a1.56,1.56,0,0,1-.84,1v8.83h7.39c.89-1.1,1.78-2.16,2.81-3.31,3.74,3.36,4.12,4.1,4.12,4.52s-.14.52-.61.52H24.8c0,3.63.05,7.31.05,10.94H37a42.13,42.13,0,0,1,3-3.68c4.12,3.68,4.49,4.42,4.49,4.84s-.14.57-.61.57h-19c.09,10.25.18,12.67.18,13.57s-1.45,1.63-2.52,1.63a.87.87,0,0,1-1-.9c0-1.36.1-3.94.19-14.3H5.05l-4.67.27v-2.26l4.67.26H8.42Zm13.29,7.62c.05-3.63.05-7.31.05-10.94H12l-.56.64v10.3Z"/><path class="cls-1" d="M21,626H10.86a45.28,45.28,0,0,1-5.62,8.51l-.79-.63a60.79,60.79,0,0,0,6.45-18.35c4,1.21,4.68,1.58,4.68,2.21s-.28.9-1.87,1.32a50.27,50.27,0,0,1-2.06,5.2H21v-.74c0-4.88,0-7.46-.18-9.46,4.58.53,5.14.9,5.14,1.47s-.28,1-1.87,1.63v7.1h8c.84-1.1,1.68-2.26,2.66-3.47,4.21,3.47,4.59,4,4.59,4.57s-.28.64-.75.64H24.05v10.19H36.78c.93-1.36,1.59-2.31,2.76-3.78,4.21,3.63,4.72,4.36,4.72,4.89,0,.37-.28.63-.75.63H28.45a1.63,1.63,0,0,1-.8,1v17.45c0,1.37.66,1.74,5.8,1.74,5.43,0,6.23-.48,7-2a23.83,23.83,0,0,0,1.54-5l.94.16c-.14,2-.24,3.73-.24,5,0,.9,1.22.9,1.22,2.21,0,1.58-1.82,2.74-10.48,2.74-8.1,0-8.94-.58-8.94-3.68,0-1.63.19-5.84.19-13.57v-6H19a1.31,1.31,0,0,1-.89,1.21c-.32,13.14-5.43,20.13-16.61,23.71L1,661.94c9.83-4.83,13.76-11.35,13.85-24H5.33l-4.77.26V636l4.77.26H21Z"/><path class="cls-1" d="M5,688.09c1.07,1.47,2,2.21,5.05,2.21h.47A50.68,50.68,0,0,0,21.06,689c0-1.79,0-3.21,0-4.73a10.56,10.56,0,0,0-.56-3.58,1.52,1.52,0,0,0-1.45-1,7.67,7.67,0,0,0-1.59.05l-.19-.84a4,4,0,0,1,2.67-1.11,9.58,9.58,0,0,1,3.79,1.53,2.3,2.3,0,0,1,1.17,1.63,2,2,0,0,1-.47,1.15,4.29,4.29,0,0,0-.7,2.21c-.1,1.32-.14,2.37-.19,4.1a32.91,32.91,0,0,0,5.43-1.52,15,15,0,0,0,2-1,3.81,3.81,0,0,1,2.29-.63A1.71,1.71,0,0,1,35.05,687c0,.63-.56,1.06-1.78,1.47a93.51,93.51,0,0,1-9.92,2.74v8.46a24.93,24.93,0,0,0,4.73-1.52,4,4,0,0,0,1.12-.84,3.08,3.08,0,0,1,2.06-.63c1.35,0,2,.68,2,1.36s-.33,1-1,1.37a36.45,36.45,0,0,1-8.8,2.68c0,3.21.19,6.63.38,10a31.64,31.64,0,0,1,8.7,4c1.73,1.21,2.39,2.06,2.39,3.32a1.67,1.67,0,0,1-1.46,1.84c-.6,0-1.26-.37-2.29-1.32a26,26,0,0,0-7.3-5.15A6.78,6.78,0,0,1,22,719.47a7.78,7.78,0,0,1-5.24,1.79c-4.16,0-7-1.68-7-4.94,0-2.74,2.85-5.15,7.25-5.15a23.44,23.44,0,0,1,4.31.36c-.1-3-.14-5.88-.19-8.88a38.2,38.2,0,0,1-5.62.37c-3.08,0-4.44-.95-4.44-3.42,0-2.31,2.15-4.84,5.57-7.41v-.11a31.63,31.63,0,0,1-5.62.74h-.32c-4.12,0-5.39-.79-6.6-4.05Zm10.85,25.13c-2.66,0-4.3,1.15-4.3,2.89,0,1.58,1.49,2.63,5,2.63a4.84,4.84,0,0,0,3.56-1.42A5.12,5.12,0,0,0,21.2,714,16.94,16.94,0,0,0,15.86,713.22Zm5.2-21.56a14.68,14.68,0,0,0-5.76,3.47c-1.36,1.37-2.15,2.63-2.15,3.84,0,1,1,1.63,2.48,1.63h.51a33.16,33.16,0,0,0,5-.47C21.1,697.39,21.06,694.34,21.06,691.66Z"/><path class="cls-1" d="M3,751.45a3.58,3.58,0,0,0,3.37,2.21,15,15,0,0,0,4.59-.95c5.75-1.84,14.31-4.67,21.52-7.2a6.32,6.32,0,0,0,1.4-.84,2,2,0,0,1,1.55-.42,6.56,6.56,0,0,1,2.8.58,2.21,2.21,0,0,1,1.36,2.1c0,.79-.75,1.11-2.62,1.21a21.59,21.59,0,0,0-10.15,3.1,17.15,17.15,0,0,0-8,14.15c0,7.57,6.27,10.83,11,10.83a18.85,18.85,0,0,0,2.67-.16,9.21,9.21,0,0,1,1.64-.21c1,0,2.66,1,2.66,2.26s-1,1.89-3.09,1.89a22.25,22.25,0,0,1-9.31-1.47c-4.72-2-8-6.15-8-12.52,0-5.25,2.29-10.51,8-15.45-5.06,1.74-10.21,3.89-13.57,5.36A13,13,0,0,0,8,757.29a2.64,2.64,0,0,1-1.17.42,3.61,3.61,0,0,1-2-.89c-1.5-1.32-2.48-2.63-2.48-3.68a11.53,11.53,0,0,1,.09-1.63Zm29.2,4.16a13.19,13.19,0,0,1,5.85,2.78,4.39,4.39,0,0,1,1.49,3.1c0,1.21-.6,1.9-1.35,1.9-.94,0-1.26-.79-2.11-2.37A13,13,0,0,0,32,756.5Zm4.21-3.89a13.53,13.53,0,0,1,6,2.52A3.59,3.59,0,0,1,44,757.08c0,1.21-.61,1.94-1.31,1.94-.51,0-1-.31-1.87-1.89a12.87,12.87,0,0,0-4.63-4.52Z"/></g></g></svg>
